<svg xmlns="http://www.w3.org/2000/svg" xmlns:xlink="http://www.w3.org/1999/xlink" version="1.2" width="1189.00mm" height="841.00mm" viewBox="0 0 676.6065 478.5754">
<style type="text/css">
<![CDATA[
tspan { white-space: pre; }
]]>
</style>
<!-- Page: 1/1 -->
<g color="grey">
<g transform="translate(5.6906, 114.6906)">
<line stroke-linejoin="round" stroke-linecap="round" stroke-width="1.6000" stroke="currentColor" x1="0.8000" y1="0" x2="191.4477" y2="0"/>
</g>
<g transform="translate(5.6906, 98.6906)">
<line stroke-linejoin="round" stroke-linecap="round" stroke-width="1.6000" stroke="currentColor" x1="0.8000" y1="0" x2="191.4477" y2="0"/>
</g>
<g transform="translate(5.6906, 82.6906)">
<line stroke-linejoin="round" stroke-linecap="round" stroke-width="1.6000" stroke="currentColor" x1="0.8000" y1="0" x2="191.4477" y2="0"/>
</g>
<g transform="translate(5.6906, 66.6906)">
<line stroke-linejoin="round" stroke-linecap="round" stroke-width="1.6000" stroke="currentColor" x1="0.8000" y1="0" x2="191.4477" y2="0"/>
</g>
<g transform="translate(5.6906, 50.6906)">
<line stroke-linejoin="round" stroke-linecap="round" stroke-width="1.6000" stroke="currentColor" x1="0.8000" y1="0" x2="191.4477" y2="0"/>
</g>
</g>
<g transform="translate(114.0799, 82.6906)">
<rect x="-1.0400" y="-69.3333" width="2.0800" height="42.9963" ry="0.0400" fill="currentColor"/>
</g>
<g transform="translate(94.9131, 74.6906)">
<path transform="scale(0.0640, -0.0640)" d="M187.183 134.281c-101.52 -10.366 -187.183 -91.0474 -187.183 -170.141c0 -6.9305 0.65771 -13.8488 2.02009 -20.7065c9.91611 -49.7954 56.5823 -77.9434 113.55 -77.9434c30.93 0 64.896 8.298 97.666 25.933c67.899 36.5685 102.496 94.7147 102.496 145.048
c0 47.0724 -30.26 87.3105 -91.838 96.6735c-4.928 0.774 -19.404 1.366 -29.043 1.366c-3.332 0 -6.086 -0.071 -7.668 -0.229z" fill="currentColor"/>
</g>
<g transform="translate(94.9131, 58.6906)">
<path transform="scale(0.0640, -0.0640)" d="M187.183 134.281c-101.52 -10.366 -187.183 -91.0474 -187.183 -170.141c0 -6.9305 0.65771 -13.8488 2.02009 -20.7065c9.91611 -49.7954 56.5823 -77.9434 113.55 -77.9434c30.93 0 64.896 8.298 97.666 25.933c67.899 36.5685 102.496 94.7147 102.496 145.048
c0 47.0724 -30.26 87.3105 -91.838 96.6735c-4.928 0.774 -19.404 1.366 -29.043 1.366c-3.332 0 -6.086 -0.071 -7.668 -0.229z" fill="currentColor"/>
</g>
<g transform="translate(62.3774, 142.6506)">
<path transform="scale(0.0640, -0.0640)" d="M168.347 743.637c-5.542 -2.084 -9.189 -7.769 -9.189 -14.163c0 -4.548 0.853 -6.442 7.2 -16.106c42.442 -64.563 65.747 -139.831 65.747 -212.257c0 -121.216 -64.658 -225.948 -159.158 -257.732c-24.7737 -8.337 -64.0895 -15.537 -84.8842 -15.537h-3.2211
v-112.026v-112.027h1.6579c5.44737 0 10.4684 4.16842 13.2632 11.0368c7.43684 18.0948 24.5842 47.3684 42.0631 71.8579c34.2474 47.9368 73.4207 90.9948 130.169 142.911c26.147 23.921 49.689 56.889 66.079 92.51c21.969 47.791 32.759 100.624 32.759 154.931
c0 85.268 -26.598 174.172 -78.28 252.911c-7.004 10.666 -11.82 15.088 -17.773 15.088c-1.978 0 -4.081 -0.488 -6.433 -1.398z" fill="currentColor"/>
</g>
<g transform="translate(61.3374, 82.6906)">
<rect x="-1.0400" y="10.3371" width="2.0800" height="49.6629" ry="0.0400" fill="currentColor"/>
</g>
<g transform="translate(80.5042, 22.7306)">
<path transform="scale(0.0640, -0.0640)" d="M-17.0526 -115.816c0 -89.242 0.1421 -112.121 0.6158 -112.263c66.3157 -22.832 116.479 -51.063 144.995 -81.616c45.771 -49.094 68.374 -113.67 68.374 -181.426c0 -77.112 -29.276 -158.343 -86.99 -225.563c-3.88 -4.532 -5.675 -9.45 -5.675 -13.878
c0 -7.792 5.558 -14.07 15.101 -14.07c8.006 0 13.264 4.974 32.685 30.885c54.587 72.747 81.524 156.534 81.524 237.699c0 93.715 -35.91 183.934 -106.63 249.627c-63.947 59.4 -104.731 126.189 -125.952 206.431c-3.17369 11.9842 -7.24737 16.2 -15.4421 16.2
h-2.6052v-112.027z" fill="currentColor"/>
</g>
<g transform="translate(79.4642, 82.6906)">
<rect x="-1.0400" y="-60.0000" width="2.0800" height="49.6629" ry="0.0400" fill="currentColor"/>
</g>
<g transform="translate(60.2974, 74.6906)">
<path transform="scale(0.0640, -0.0640)" d="M187.183 134.281c-101.52 -10.366 -187.183 -91.0474 -187.183 -170.141c0 -6.9305 0.65771 -13.8488 2.02009 -20.7065c9.91611 -49.7954 56.5823 -77.9434 113.55 -77.9434c30.93 0 64.896 8.298 97.666 25.933c67.899 36.5685 102.496 94.7147 102.496 145.048
c0 47.0724 -30.26 87.3105 -91.838 96.6735c-4.928 0.774 -19.404 1.366 -29.043 1.366c-3.332 0 -6.086 -0.071 -7.668 -0.229z" fill="currentColor"/>
</g>
<g transform="translate(163.8767, 74.6906)">
<path transform="scale(0.0640, -0.0640)" d="M187.183 134.281c-101.52 -10.366 -187.183 -91.0474 -187.183 -170.141c0 -6.9305 0.65771 -13.8488 2.02009 -20.7065c9.91611 -49.7954 56.5823 -77.9434 113.55 -77.9434c30.93 0 64.896 8.298 97.666 25.933c67.899 36.5685 102.496 94.7147 102.496 145.048
c0 47.0724 -30.26 87.3105 -91.838 96.6735c-4.928 0.774 -19.404 1.366 -29.043 1.366c-3.332 0 -6.086 -0.071 -7.668 -0.229z" fill="currentColor"/>
</g>
<g transform="translate(124.4699, 90.6906)">
<path transform="scale(0.0640, -0.0640)" d="M187.183 134.281c-101.52 -10.366 -187.183 -91.0474 -187.183 -170.141c0 -6.9305 0.65771 -13.8488 2.02009 -20.7065c9.91611 -49.7954 56.5823 -77.9434 113.55 -77.9434c30.93 0 64.896 8.298 97.666 25.933c67.899 36.5685 102.496 94.7147 102.496 145.048
c0 47.0724 -30.26 87.3105 -91.838 96.6735c-4.928 0.774 -19.404 1.366 -29.043 1.366c-3.332 0 -6.086 -0.071 -7.668 -0.229zM269.51 96.1966c7.834 -2.4166 11.696 -7.9557 11.696 -16.0807c0 -12.2609 -8.794 -30.4103 -26.002 -52.6035
c-49.463 -63.7684 -149.82 -125.187 -197.388 -125.187c-6.4583 0 -11.9436 1.1322 -16.1961 3.5444c-4.5371 2.5805 -6.723 7.1895 -6.723 13.3546c0 14.4318 11.9787 37.3903 33.8177 62.8139c52.0042 60.5706 144.236 115.688 189.315 115.688
c4.275 0 8.127 -0.4959 11.48 -1.53z" fill="currentColor"/>
</g>
<g transform="translate(125.5099, 82.6906)">
<rect x="-1.0400" y="10.3371" width="2.0800" height="48.3296" ry="0.0400" fill="currentColor"/>
</g>
<g transform="translate(143.6367, 82.6906)">
<rect x="-1.0400" y="-58.6667" width="2.0800" height="48.3296" ry="0.0400" fill="currentColor"/>
</g>
<g transform="translate(124.4699, 74.6906)">
<path transform="scale(0.0640, -0.0640)" d="M187.183 134.281c-101.52 -10.366 -187.183 -91.0474 -187.183 -170.141c0 -6.9305 0.65771 -13.8488 2.02009 -20.7065c9.91611 -49.7954 56.5823 -77.9434 113.55 -77.9434c30.93 0 64.896 8.298 97.666 25.933c67.899 36.5685 102.496 94.7147 102.496 145.048
c0 47.0724 -30.26 87.3105 -91.838 96.6735c-4.928 0.774 -19.404 1.366 -29.043 1.366c-3.332 0 -6.086 -0.071 -7.668 -0.229zM269.51 96.1966c7.834 -2.4166 11.696 -7.9557 11.696 -16.0807c0 -12.2609 -8.794 -30.4103 -26.002 -52.6035
c-49.463 -63.7684 -149.82 -125.187 -197.388 -125.187c-6.4583 0 -11.9436 1.1322 -16.1961 3.5444c-4.5371 2.5805 -6.723 7.1895 -6.723 13.3546c0 14.4318 11.9787 37.3903 33.8177 62.8139c52.0042 60.5706 144.236 115.688 189.315 115.688
c4.275 0 8.127 -0.4959 11.48 -1.53z" fill="currentColor"/>
</g>
<g transform="translate(95.9531, 82.6906)">
<rect x="-1.0400" y="-5.6629" width="2.0800" height="53.6629" ry="0.0400" fill="currentColor"/>
</g>
<g transform="translate(37.6906, 74.6906)">
<path transform="scale(0.0640, -0.0640)" d="M187.183 134.281c-101.52 -10.366 -187.183 -91.0474 -187.183 -170.141c0 -6.9305 0.65771 -13.8488 2.02009 -20.7065c9.91611 -49.7954 56.5823 -77.9434 113.55 -77.9434c30.93 0 64.896 8.298 97.666 25.933c67.899 36.5685 102.496 94.7147 102.496 145.048
c0 47.0724 -30.26 87.3105 -91.838 96.6735c-4.928 0.774 -19.404 1.366 -29.043 1.366c-3.332 0 -6.086 -0.071 -7.668 -0.229z" fill="currentColor"/>
</g>
<g transform="translate(165.9567, 154.6506)">
<path transform="scale(0.0640, -0.0640)" d="M202.453 993.742c-5.495 -2.084 -9.19 -7.768 -9.19 -14.116c0 -4.31 0.569 -5.731 5.59 -14.068c24.808 -41.254 36.815 -86.613 36.815 -130.848c0 -68.521 -28.81 -134.345 -83.473 -178.042c-37.327 -29.842 -98.7161 -53.384 -163.421 -62.668l-3.9316 -0.568
v-95.874v-95.874h1.6579c5.25789 0 9.71053 3.648 13.7842 11.274c24.8684 46.658 76.3105 103.5 138.979 153.474c17.669 14.068 17.716 14.115 24.821 20.463c26.669 23.589 48.316 50.826 67.358 84.647l1.421 2.511l0.805 -6.064
c1.443 -10.662 2.149 -21.318 2.149 -31.893c0 -75.869 -36.318 -147.605 -97.264 -188.18c-38.321 -25.532 -92.3688 -44.621 -149.779 -52.863l-3.9316 -0.569v-95.873v-95.874h1.6579c5.25789 0 9.71053 3.647 13.7842 11.274
c24.8684 46.657 76.3105 103.5 138.979 153.473c17.669 14.069 17.716 14.116 24.821 20.463c26.669 23.59 48.316 50.827 67.358 84.648l1.421 2.51l0.805 -6.063c1.443 -10.663 2.149 -21.318 2.149 -31.894c0 -75.868 -36.318 -147.604 -97.264 -188.18
c-38.321 -25.531 -92.3688 -44.621 -149.779 -52.863l-3.9316 -0.568v-95.8738v-95.8737h1.6579c5.25789 0 9.71053 3.64737 13.7842 11.2737c24.8684 46.6579 76.3105 103.5 138.979 153.474c17.669 14.068 17.716 14.116 24.821 20.463
c67.88 60.105 105.523 146.557 105.523 235.046c0 25.811 -3.202 51.795 -9.791 77.349c-1.137 4.452 -3.032 11.131 -4.216 14.921l-2.132 6.868l1.8 5.684c9.491 29.668 14.272 61.634 14.272 93.657c0 26.315 -3.229 52.668 -9.724 77.817
c-1.137 4.453 -3.032 11.132 -4.216 14.921l-2.132 6.869l1.8 5.684c9.491 29.668 14.272 61.619 14.272 93.637c0 26.311 -3.229 52.666 -9.724 77.836c-10.327 40.122 -34.532 90.379 -45.569 94.5c-1.665 0.61 -3.761 0.918 -5.855 0.918
c-2.134 0 -4.266 -0.319 -5.939 -0.965z" fill="currentColor"/>
</g>
<g transform="translate(38.7306, 82.6906)">
<rect x="-1.0400" y="-5.6629" width="2.0800" height="53.6629" ry="0.0400" fill="currentColor"/>
</g>
<g transform="translate(57.8974, 6.7306)">
<path transform="scale(0.0640, -0.0640)" d="M-17.0526 -105.111v-101.273l1.4684 -0.332c0.8053 -0.142 4.7368 -0.284 8.71578 -0.284c42.4895 0 89.7631 -11.463 112.263 -27.237c40.642 -28.468 71.763 -73.942 85.026 -124.342c1.042 -4.026 2.226 -8.384 2.605 -9.71c0.379 -1.279 1.09 -4.69 1.611 -7.579
c2.767 -15.451 4.154 -31.228 4.154 -46.963c0 -16.587 -1.541 -33.128 -4.628 -49.195c-0.749 -3.888 -1.095 -5.465 -1.623 -5.465c-0.341 0 -0.758 0.656 -1.408 1.77c-10.8 18.521 -28.043 39.695 -47.179 57.932c-71.3372 67.926 -122.4 133.342 -143.716 184.121
c-3.45789 8.289 -8.00526 11.984 -14.6842 11.984h-2.6052v-101.321v-101.274l1.4684 -0.332c0.8053 -0.142 4.7368 -0.284 8.71578 -0.284c42.4895 0 89.7631 -11.463 112.263 -27.237c40.642 -28.468 71.763 -73.942 85.026 -124.342
c1.042 -4.026 2.226 -8.384 2.605 -9.71c0.948 -3.316 2.369 -11.511 3.506 -20.132c1.537 -11.481 2.297 -22.971 2.297 -34.419c0 -64.404 -24.062 -127.441 -69.229 -179.686c-3.168 -3.67 -4.607 -7.818 -4.607 -11.725c0 -7.893 5.871 -14.801 15.218 -14.801
c7.721 0 11.463 3.315 27.331 24.158c43.308 56.983 65.986 125.772 65.986 193.925c0 33.822 -5.585 67.487 -17.007 99.475l-2.842 7.957l2.605 7.674c11.64 34.209 17.318 68.942 17.318 102.951c0 79.341 -30.906 154.741 -89.128 210.344
c-72.6635 69.489 -122.827 133.721 -144.237 184.689c-3.45789 8.28949 -8.00526 11.9842 -14.6842 11.9842h-2.6052v-101.322z" fill="currentColor"/>
</g>
<g transform="translate(56.8574, 82.6906)">
<rect x="-1.0400" y="-76.0000" width="2.0800" height="49.6629" ry="0.0400" fill="currentColor"/>
</g>
<g transform="translate(39.7706, 130.6506)">
<path transform="scale(0.0640, -0.0640)" d="M221.4 743.637c-5.589 -2.132 -9.189 -7.769 -9.189 -14.305c0 -3.695 0.094 -3.932 4.878 -14.353c12.263 -26.888 18.118 -55.532 18.118 -84.118c0 -71.126 -36.245 -141.894 -100.207 -184.366c-33.063 -21.979 -80.5737 -37.611 -143.384 -47.227l-6.77369 -1.042
v-97.721v-97.768h1.6579c4.64211 0 9.94737 3.837 12.6 9.095c29.7947 59.021 87.7737 129.031 151.768 183.221c33.3 28.231 54.995 52.91 73.706 83.984l3.647 6.063l1.184 -5.116c3.837 -16.397 5.709 -32.872 5.709 -49.175c0 -66.63 -31.275 -130.391 -87.561 -174.309
c-34.911 -27.237 -85.1214 -45.332 -155.937 -56.179l-6.77369 -1.042v-97.721v-97.7685h1.6579c4.64211 0 9.94737 3.83685 12.6 9.09473c29.7947 59.0211 87.7737 129.032 151.768 183.221c16.248 13.784 28.564 25.532 39.032 37.184
c50.042 55.886 76.622 125.314 76.622 193.619c0 30.811 -5.409 61.394 -16.511 90.403l-2.843 7.436l2.606 7.058c11.129 30.504 16.665 62.608 16.665 94.159c0 37.335 -7.751 73.895 -23.155 106.115c-4.103 8.566 -9.272 12.838 -15.57 12.838
c-1.991 0 -4.095 -0.427 -6.314 -1.28z" fill="currentColor"/>
</g>
<g transform="translate(37.6906, 58.6906)">
<path transform="scale(0.0640, -0.0640)" d="M187.183 134.281c-101.52 -10.366 -187.183 -91.0474 -187.183 -170.141c0 -6.9305 0.65771 -13.8488 2.02009 -20.7065c9.91611 -49.7954 56.5823 -77.9434 113.55 -77.9434c30.93 0 64.896 8.298 97.666 25.933c67.899 36.5685 102.496 94.7147 102.496 145.048
c0 47.0724 -30.26 87.3105 -91.838 96.6735c-4.928 0.774 -19.404 1.366 -29.043 1.366c-3.332 0 -6.086 -0.071 -7.668 -0.229z" fill="currentColor"/>
</g>
<g transform="translate(60.2974, 90.6906)">
<path transform="scale(0.0640, -0.0640)" d="M187.183 134.281c-101.52 -10.366 -187.183 -91.0474 -187.183 -170.141c0 -6.9305 0.65771 -13.8488 2.02009 -20.7065c9.91611 -49.7954 56.5823 -77.9434 113.55 -77.9434c30.93 0 64.896 8.298 97.666 25.933c67.899 36.5685 102.496 94.7147 102.496 145.048
c0 47.0724 -30.26 87.3105 -91.838 96.6735c-4.928 0.774 -19.404 1.366 -29.043 1.366c-3.332 0 -6.086 -0.071 -7.668 -0.229z" fill="currentColor"/>
</g>
<g transform="translate(183.0436, 82.6906)">
<rect x="-1.0400" y="-72.0000" width="2.0800" height="61.6629" ry="0.0400" fill="currentColor"/>
</g>
<g transform="translate(164.9167, 82.6906)">
<rect x="-1.0400" y="10.3371" width="2.0800" height="61.6629" ry="0.0400" fill="currentColor"/>
</g>
<g transform="translate(184.0836, 10.7306)">
<path transform="scale(0.0640, -0.0640)" d="M-17.0526 -104.163v-100.374l21.4579 -0.237c37.1842 -0.379 60.2526 -4.358 77.3526 -13.31c71.0351 -37.09 115.156 -124.442 115.156 -223.615c0 -9.878 -0.437 -19.874 -1.33 -29.948l-0.568 -6.3l-3.742 6.963c-18.048 33.3 -32.59 51.205 -72.048 88.721
c-51.8207 49.31 -97.7207 106.674 -118.421 148.074c-4.6421 9.284 -8.57368 12.505 -15.2527 12.505h-2.6052v-100.374v-100.374l21.4579 -0.236c37.1842 -0.379 60.2526 -4.358 77.3526 -13.311c71.0351 -37.09 115.156 -124.442 115.156 -223.615
c0 -9.878 -0.437 -19.873 -1.33 -29.948l-0.568 -6.3l-3.742 6.963c-18.048 33.3 -32.59 51.205 -72.048 88.721c-51.8207 49.311 -97.7207 106.674 -118.421 148.074c-4.6421 9.284 -8.57368 12.505 -15.2527 12.505h-2.6052v-100.374v-100.373l21.4579 -0.237
c37.1842 -0.379 60.2526 -4.358 77.3526 -13.311c61.7681 -32.258 104.874 -104.589 113.589 -190.468c1.083 -10.626 1.619 -21.379 1.619 -32.212c0 -67.349 -20.699 -137.766 -59.219 -199.756c-4.405 -7.15 -5.115 -8.95 -5.115 -13.21
c0 -9.2 7.534 -15.32 15.352 -15.32c3.696 0 7.455 1.37 10.511 4.42c5.731 5.74 25.768 42.16 36.189 65.66c25.057 56.688 38.046 117.624 38.046 176.285c0 21.184 -1.694 42.071 -5.125 62.354c-2.226 13.121 -5.731 28.658 -8.905 39.41l-1.089 3.837l2.463 9.9
c8.325 33.419 12.554 68.484 12.554 102.534c0 21.356 -1.663 42.313 -5.023 62.214c-2.226 13.121 -5.731 28.658 -8.905 39.41l-1.089 3.837l2.463 9.9c8.325 33.419 12.554 68.484 12.554 102.534c0 21.356 -1.663 42.312 -5.023 62.213
c-11.889 70.2 -42.868 132.3 -87.963 176.306c-3.979 3.931 -13.168 12.742 -20.416 19.658c-52.0576 49.594 -97.7207 106.721 -118.421 148.073c-4.6421 9.28417 -8.57368 12.5052 -15.2527 12.5052h-2.6052v-100.374z" fill="currentColor"/>
</g>
<g transform="translate(163.8767, 90.6906)">
<path transform="scale(0.0640, -0.0640)" d="M187.183 134.281c-101.52 -10.366 -187.183 -91.0474 -187.183 -170.141c0 -6.9305 0.65771 -13.8488 2.02009 -20.7065c9.91611 -49.7954 56.5823 -77.9434 113.55 -77.9434c30.93 0 64.896 8.298 97.666 25.933c67.899 36.5685 102.496 94.7147 102.496 145.048
c0 47.0724 -30.26 87.3105 -91.838 96.6735c-4.928 0.774 -19.404 1.366 -29.043 1.366c-3.332 0 -6.086 -0.071 -7.668 -0.229z" fill="currentColor"/>
</g>
</svg>
