<svg xmlns="http://www.w3.org/2000/svg" xmlns:xlink="http://www.w3.org/1999/xlink" version="1.2" width="1189.00mm" height="841.00mm" viewBox="0 0 676.6065 478.5754">
<style type="text/css">
<![CDATA[
tspan { white-space: pre; }
]]>
</style>
<!-- Page: 1/1 -->
<g color="grey">
<g transform="translate(5.6906, 114.6906)">
<line stroke-linejoin="round" stroke-linecap="round" stroke-width="1.6000" stroke="currentColor" x1="0.8000" y1="0" x2="192.5656" y2="0"/>
</g>
<g transform="translate(5.6906, 98.6906)">
<line stroke-linejoin="round" stroke-linecap="round" stroke-width="1.6000" stroke="currentColor" x1="0.8000" y1="0" x2="192.5656" y2="0"/>
</g>
<g transform="translate(5.6906, 82.6906)">
<line stroke-linejoin="round" stroke-linecap="round" stroke-width="1.6000" stroke="currentColor" x1="0.8000" y1="0" x2="192.5656" y2="0"/>
</g>
<g transform="translate(5.6906, 66.6906)">
<line stroke-linejoin="round" stroke-linecap="round" stroke-width="1.6000" stroke="currentColor" x1="0.8000" y1="0" x2="192.5656" y2="0"/>
</g>
<g transform="translate(5.6906, 50.6906)">
<line stroke-linejoin="round" stroke-linecap="round" stroke-width="1.6000" stroke="currentColor" x1="0.8000" y1="0" x2="192.5656" y2="0"/>
</g>
</g>
<g transform="translate(114.4250, 82.6906)">
<rect x="-1.0400" y="-69.3333" width="2.0800" height="42.1857" ry="0.0400" fill="currentColor"/>
</g>
<g transform="translate(94.5721, 74.6906)">
<path transform="scale(0.0640, -0.0640)" d="M222 135c53 0 104 -27 104 -86c0 -71 -56 -120 -103 -148c-36 -22 -76 -36 -118 -36c-53 0 -105 27 -105 86c0 71 57 120 104 148c36 22 76 36 118 36z" fill="currentColor"/>
</g>
<g transform="translate(94.5721, 58.6906)">
<path transform="scale(0.0640, -0.0640)" d="M222 135c53 0 104 -27 104 -86c0 -71 -56 -120 -103 -148c-36 -22 -76 -36 -118 -36c-53 0 -105 27 -105 86c0 71 57 120 104 148c36 22 76 36 118 36z" fill="currentColor"/>
</g>
<g transform="translate(63.0635, 142.6506)">
<path transform="scale(0.0640, -0.0640)" d="M0 0h-14v250h14v-250zM0 0v250c98 58 228 147 228 259c0 57 -15 112 -40 164c-3 15 9 25 21 25c7 0 14 -3 18 -10c25 -56 40 -117 40 -179c0 -203 -267 -306 -267 -509z" fill="currentColor"/>
</g>
<g transform="translate(62.0235, 82.6906)">
<rect x="-1.0400" y="11.1477" width="2.0800" height="48.8523" ry="0.0400" fill="currentColor"/>
</g>
<g transform="translate(81.8764, 22.7306)">
<path transform="scale(0.0640, -0.0640)" d="M0 0v-250h-14v250h14zM0 0c0 -198 207 -336 207 -534c0 -71 -16 -142 -42 -208c-4 -7 -10 -11 -17 -11c-12 0 -24 10 -21 25c26 62 41 127 41 194c0 104 -96 209 -168 284v250z" fill="currentColor"/>
</g>
<g transform="translate(80.8364, 82.6906)">
<rect x="-1.0400" y="-60.0000" width="2.0800" height="48.8523" ry="0.0400" fill="currentColor"/>
</g>
<g transform="translate(60.9835, 74.6906)">
<path transform="scale(0.0640, -0.0640)" d="M222 135c53 0 104 -27 104 -86c0 -71 -56 -120 -103 -148c-36 -22 -76 -36 -118 -36c-53 0 -105 27 -105 86c0 71 57 120 104 148c36 22 76 36 118 36z" fill="currentColor"/>
</g>
<g transform="translate(165.9675, 74.6906)">
<path transform="scale(0.0640, -0.0640)" d="M222 135c53 0 104 -27 104 -86c0 -71 -56 -120 -103 -148c-36 -22 -76 -36 -118 -36c-53 0 -105 27 -105 86c0 71 57 120 104 148c36 22 76 36 118 36z" fill="currentColor"/>
</g>
<g transform="translate(124.8150, 90.6906)">
<path transform="scale(0.0640, -0.0640)" d="M316 67c0 25 -20 42 -42 42c-4 0 -9 -1 -13 -2c-31 -9 -79 -41 -117 -65s-86 -55 -107 -80c-7 -8 -10 -19 -10 -29c0 -25 20 -42 42 -42c4 0 9 1 13 2c31 9 79 41 117 65s86 55 107 80c7 8 10 19 10 29zM265 135c44 0 78 -21 78 -68c0 -19 -5 -39 -11 -57
c-12 -37 -33 -71 -65 -93c-53 -36 -114 -52 -189 -52c-44 0 -78 21 -78 68c0 19 5 39 11 57c12 37 33 71 65 93c53 36 114 52 189 52z" fill="currentColor"/>
</g>
<g transform="translate(125.8550, 82.6906)">
<rect x="-1.0400" y="12.2943" width="2.0800" height="46.3723" ry="0.0400" fill="currentColor"/>
</g>
<g transform="translate(145.7275, 82.6906)">
<rect x="-1.0400" y="-58.6667" width="2.0800" height="46.3723" ry="0.0400" fill="currentColor"/>
</g>
<g transform="translate(124.8150, 74.6906)">
<path transform="scale(0.0640, -0.0640)" d="M316 67c0 25 -20 42 -42 42c-4 0 -9 -1 -13 -2c-31 -9 -79 -41 -117 -65s-86 -55 -107 -80c-7 -8 -10 -19 -10 -29c0 -25 20 -42 42 -42c4 0 9 1 13 2c31 9 79 41 117 65s86 55 107 80c7 8 10 19 10 29zM265 135c44 0 78 -21 78 -68c0 -19 -5 -39 -11 -57
c-12 -37 -33 -71 -65 -93c-53 -36 -114 -52 -189 -52c-44 0 -78 21 -78 68c0 19 5 39 11 57c12 37 33 71 65 93c53 36 114 52 189 52z" fill="currentColor"/>
</g>
<g transform="translate(95.6121, 82.6906)">
<rect x="-1.0400" y="-4.8523" width="2.0800" height="52.8523" ry="0.0400" fill="currentColor"/>
</g>
<g transform="translate(37.6906, 74.6906)">
<path transform="scale(0.0640, -0.0640)" d="M222 135c53 0 104 -27 104 -86c0 -71 -56 -120 -103 -148c-36 -22 -76 -36 -118 -36c-53 0 -105 27 -105 86c0 71 57 120 104 148c36 22 76 36 118 36z" fill="currentColor"/>
</g>
<g transform="translate(168.0475, 154.6506)">
<path transform="scale(0.0640, -0.0640)" d="M267 866c0 -38 -13 -70 -31 -100c15 -38 25 -79 25 -120c0 -38 -12 -71 -30 -101c11 -36 17 -73 17 -111c0 -179 -248 -255 -248 -434h-14v750h14v-325c96 45 222 119 222 221c0 28 -5 55 -14 81c-78 -92 -208 -161 -208 -287v205c98 44 228 117 228 221
c0 19 -10 36 -10 54c0 12 11 20 22 20c26 0 27 -51 27 -74zM0 205c90 50 209 128 209 229c0 23 -3 47 -8 70c-77 -90 -201 -160 -201 -284v-15z" fill="currentColor"/>
</g>
<g transform="translate(38.7306, 82.6906)">
<rect x="-1.0400" y="-4.8523" width="2.0800" height="52.8523" ry="0.0400" fill="currentColor"/>
</g>
<g transform="translate(58.5835, 6.7306)">
<path transform="scale(0.0640, -0.0640)" d="M0 0v-500h-14v500h14zM0 0c0 -178 201 -293 201 -471c0 -33 -9 -65 -23 -95c18 -37 29 -76 29 -118c0 -63 -16 -125 -42 -183c-4 -7 -10 -11 -17 -11c-12 0 -24 10 -21 25c26 53 41 110 41 169c0 98 -96 192 -168 259v212c0 -119 92 -209 153 -309c6 16 9 34 9 51
c0 97 -92 190 -162 258v213z" fill="currentColor"/>
</g>
<g transform="translate(57.5435, 82.6906)">
<rect x="-1.0400" y="-76.0000" width="2.0800" height="48.8523" ry="0.0400" fill="currentColor"/>
</g>
<g transform="translate(39.7706, 130.6506)">
<path transform="scale(0.0640, -0.0640)" d="M0 205c92 52 214 132 214 235c0 25 -5 50 -14 73c-79 -91 -200 -163 -200 -288v-20zM267 665c0 -44 -16 -82 -39 -116c16 -34 25 -71 25 -109c0 -181 -253 -259 -253 -440h-14v500h14v-70c98 49 228 129 228 235c0 22 -5 43 -13 63c-3 15 9 25 21 25c28 0 31 -64 31 -88z
" fill="currentColor"/>
</g>
<g transform="translate(37.6906, 58.6906)">
<path transform="scale(0.0640, -0.0640)" d="M222 135c53 0 104 -27 104 -86c0 -71 -56 -120 -103 -148c-36 -22 -76 -36 -118 -36c-53 0 -105 27 -105 86c0 71 57 120 104 148c36 22 76 36 118 36z" fill="currentColor"/>
</g>
<g transform="translate(60.9835, 90.6906)">
<path transform="scale(0.0640, -0.0640)" d="M222 135c53 0 104 -27 104 -86c0 -71 -56 -120 -103 -148c-36 -22 -76 -36 -118 -36c-53 0 -105 27 -105 86c0 71 57 120 104 148c36 22 76 36 118 36z" fill="currentColor"/>
</g>
<g transform="translate(185.8204, 82.6906)">
<rect x="-1.0400" y="-72.0000" width="2.0800" height="60.8523" ry="0.0400" fill="currentColor"/>
</g>
<g transform="translate(167.0075, 82.6906)">
<rect x="-1.0400" y="11.1477" width="2.0800" height="60.8523" ry="0.0400" fill="currentColor"/>
</g>
<g transform="translate(186.8604, 10.7306)">
<path transform="scale(0.0640, -0.0640)" d="M0 -430v212c0 -112 87 -196 146 -289c3 12 6 26 6 39c0 94 -87 187 -152 255v-537h-14v750h14c0 -175 191 -293 191 -468c0 -29 -8 -58 -19 -84c17 -35 29 -72 29 -112c0 -36 -9 -72 -24 -105c18 -35 30 -71 30 -112c0 -60 -16 -120 -42 -174c-4 -7 -10 -10 -17 -10
c-12 0 -24 9 -21 24c26 49 41 104 41 160c0 92 -96 176 -168 234v212c0 -114 91 -197 152 -290c7 20 10 40 10 61c0 91 -92 175 -162 234z" fill="currentColor"/>
</g>
<g transform="translate(165.9675, 90.6906)">
<path transform="scale(0.0640, -0.0640)" d="M222 135c53 0 104 -27 104 -86c0 -71 -56 -120 -103 -148c-36 -22 -76 -36 -118 -36c-53 0 -105 27 -105 86c0 71 57 120 104 148c36 22 76 36 118 36z" fill="currentColor"/>
</g>
</svg>
